<svg width="139" height="20" viewBox="0 0 139 20" fill="none" xmlns="http://www.w3.org/2000/svg">
<path d="M53.6348 8.34068V5.75535L54.587 4.71655H68.4647L69.329 5.65938V8.34068H53.6348ZM69.2985 10.5877V19.0808L68.4647 19.9906H54.5866L53.7181 19.0423V11.242L54.3181 10.5877H69.2985ZM65.55 14.1968H57.416V16.366H65.55V14.1968ZM2.37441 10.4865L0 13.0793V14.2291H6.29961L11.6037 20H15.4971V18.8405L7.83451 10.4866H2.37441V10.4865ZM11.6037 4.71607L8.17288 8.45933H13.127L15.4971 5.87558V4.71607H11.6037ZM34.969 5.8226C34.2227 6.56002 33.8497 7.4291 33.8497 8.42967V19.9906H37.6339V8.45616H46.1885V4.71655H37.6339C36.6034 4.71655 35.7151 5.08518 34.969 5.8226ZM98.5895 5.82292C97.8436 6.56002 97.4706 7.42894 97.4706 8.42951V19.9903H101.255V4.71655C100.224 4.71655 99.3361 5.08518 98.5894 5.82292H98.5895ZM97.4706 4.10586H101.255V0H97.4706V4.1057V4.10586ZM28.7378 4.71655C29.786 4.71655 30.6741 5.08518 31.4027 5.8226C32.131 6.56002 32.4954 7.4291 32.4954 8.42967V14.2232H20.6093V16.251H32.4954V19.9906H20.5827C19.57 19.9906 18.6905 19.622 17.9442 18.8846C17.1981 18.1472 16.8251 17.2781 16.8251 16.2775V8.42983C16.8251 7.4291 17.1981 6.56002 17.9442 5.82276C18.6905 5.08534 19.57 4.71671 20.5827 4.71671H28.7376M28.711 8.45616H20.6092V10.9052H28.711V8.45616ZM135.242 4.71671C136.291 4.71671 137.179 5.08534 137.907 5.82276C138.636 6.56018 139 7.42926 139 8.42983V14.2234H127.114V16.2512H139V19.9908H127.087C126.075 19.9908 125.195 19.6222 124.449 18.8847C123.703 18.1473 123.33 17.2782 123.33 16.2777V8.42999C123.33 7.42926 123.703 6.56018 124.449 5.82292C125.195 5.0855 126.075 4.71686 127.087 4.71686H135.242M135.216 8.45632H127.114V10.9054H135.216V8.45632ZM74.1497 16.2862L74.147 8.35163L85.72 8.34861V4.642H74.1232C73.1195 4.642 72.2477 5.00301 71.508 5.72521C70.7685 6.44724 70.3985 7.31315 70.3985 8.3226V16.3102C70.3985 17.3369 70.7685 18.2068 71.508 18.9206C72.2477 19.6339 73.1193 19.9908 74.1232 19.9908H85.72V16.284L74.1497 16.2862ZM90.4895 0H86.6846V16.2572C86.6846 17.2633 87.0597 18.1372 87.81 18.8784C88.5601 19.6198 89.4532 19.9905 90.4894 19.9905H96.411V16.2306L90.4911 16.2342L90.4894 8.39319H96.411V4.63343H90.4894V0H90.4895ZM112.809 15.1984L107.028 4.63787H102.679L111.139 19.8366H114.48L122.966 4.63787H118.617L112.809 15.1984Z" fill="#008080"/>
</svg>
